<svg xmlns="http://www.w3.org/2000/svg" xmlns:xlink="http://www.w3.org/1999/xlink" width="162.793" height="28" viewBox="0 0 162.793 28">
  <defs>
    <clipPath id="clip-path">
      <rect id="Rectangle_3144" data-name="Rectangle 3144" width="162.793" height="28" fill="#0d62b6"/>
    </clipPath>
  </defs>
  <g id="Group_3037" data-name="Group 3037" transform="translate(0 0)">
    <g id="Group_3036" data-name="Group 3036" transform="translate(0 0)" clip-path="url(#clip-path)">
      <path id="Path_13" data-name="Path 13" d="M224.987,15.043a.252.252,0,0,0-.106.023c-.064.02-.706.064-2.213.1-1.169.03-2.664.046-4.325.046a.267.267,0,0,0-.265.271c0,1.1,0,1.9-.016,2.448a8.357,8.357,0,0,1-.045.979.263.263,0,0,0,.21.314l1.995.006a.266.266,0,0,0,.264-.27.594.594,0,0,1,.119-.412.53.53,0,0,1,.389-.119l.914-.022a20.308,20.308,0,0,1-.317,2.06,7.962,7.962,0,0,1-.5,1.618,3.292,3.292,0,0,1-.783,1.112,2.5,2.5,0,0,1-1.052.56,1.377,1.377,0,0,1-.948-.5,5.569,5.569,0,0,1-.975-1.677,12.139,12.139,0,0,1-.7-2.5,17.467,17.467,0,0,1-.235-2.942,11.15,11.15,0,0,1,.2-2.2,7.586,7.586,0,0,1,.608-1.83,3.631,3.631,0,0,1,.864-1.2,1.43,1.43,0,0,1,1.626-.2,2.222,2.222,0,0,1,.647.531,2.853,2.853,0,0,1,.472.728,1.8,1.8,0,0,1,.151.709.265.265,0,0,0,.265.265h2.516a.264.264,0,0,0,.139-.489c0-.033,0-.089.007-.156.009-.165.024-.444.034-.841l.016-.746q.034-1.68.051-2.788c.012-.811.018-1.324.018-1.618a.265.265,0,0,0-.264-.264H221.4a.266.266,0,0,0-.265.269l0,.037c.016.143.028.294.039.455a2.512,2.512,0,0,0-.56-.4,3.459,3.459,0,0,0-1.633-.36,3.746,3.746,0,0,0-2.4.9,7.913,7.913,0,0,0-1.944,2.594,15.224,15.224,0,0,0-1.293,3.759,21.768,21.768,0,0,0-.43,4.448,18.075,18.075,0,0,0,1.723,8.208,7.926,7.926,0,0,0,1.944,2.594,3.748,3.748,0,0,0,2.4.9,4.188,4.188,0,0,0,2.985-1.218A8.726,8.726,0,0,0,224,24.682a21.761,21.761,0,0,0,.942-4.175,39.557,39.557,0,0,0,.314-5.2.265.265,0,0,0-.265-.265" transform="translate(-62.46 -1.772)" fill="#0d62b6"/>
      <path id="Path_14" data-name="Path 14" d="M209.463,25.616c-.823,0-1.24-.182-1.24-.541a.2.2,0,0,0-.025-.1c-.066-.352-.143-3.124-.143-14.059,0-.19,0-.769,1.61-.769a.2.2,0,0,0,.2-.166.206.206,0,0,0-.071-.194,15.693,15.693,0,0,1-.194-3.783.2.2,0,0,0-.175-.2.193.193,0,0,0-.182.068c-.14.056-.994.244-6.087.244a.2.2,0,0,0-.2.2c0,2.661-.175,3.157-.228,3.246a.2.2,0,0,0,.095.382,2.262,2.262,0,0,1,1.232.31.806.806,0,0,1,.444.687c0,10.829-.148,13.64-.276,14.042a.2.2,0,0,0-.059.143c0,.271-.538.427-1.475.427a.2.2,0,0,0-.2.2c0,2.624-.251,3.147-.294,3.217a.2.2,0,0,0,.094.382h7.18a.2.2,0,0,0,.2-.2v-3.34a.2.2,0,0,0-.2-.2" transform="translate(-59.282 -1.703)" fill="#0d62b6"/>
      <path id="Path_15" data-name="Path 15" d="M195.433,9.454a30.878,30.878,0,0,1-.061-3.122.2.2,0,0,0-.2-.2h-6.14a.2.2,0,0,0-.2.249,30.176,30.176,0,0,1,.062,3.069.2.2,0,0,0,.2.2c.8,0,1.207.182,1.207.541v7.248L186.032,6.259a.2.2,0,0,0-.189-.13h-5.6a.2.2,0,0,0-.2.2c0,2.34-.262,3.079-.35,3.159a.2.2,0,0,0,.083.388,2.449,2.449,0,0,1,1.427.406,1.065,1.065,0,0,1,.551.871c0,9.291-.271,13.31-.421,13.634a.194.194,0,0,0-.051.085c-.064.213-.15.288-.478.429a3.175,3.175,0,0,1-1.23.211.2.2,0,0,0-.2.2c0,1.791-.023,2.935-.066,3.4a.2.2,0,0,0,.2.222h7.247c.288,0,.337-.365.337-1.186-.018-.7-.025-1.222-.03-1.6-.011-.839-.011-.839-.116-.915a.206.206,0,0,0-.186-.03,2.143,2.143,0,0,1-1.014-.241c-.288-.126-.433-.27-.433-.428V14.778l5.107,13.963a.8.8,0,0,0,.865.6h2.617a.2.2,0,0,0,.2-.2V10.248c0-.112.1-.225.3-.338a1.7,1.7,0,0,1,.836-.2.2.2,0,0,0,.2-.254" transform="translate(-52.598 -1.798)" fill="#0d62b6"/>
      <path id="Path_16" data-name="Path 16" d="M167.8,6.047c-1.752,0-3.251,1.167-4.458,3.466a17.54,17.54,0,0,0-1.784,8.2,17.366,17.366,0,0,0,1.785,8.154c1.206,2.291,2.706,3.453,4.458,3.453s3.255-1.162,4.473-3.452a17.3,17.3,0,0,0,1.8-8.184,17.3,17.3,0,0,0-1.8-8.183c-1.218-2.29-2.723-3.452-4.473-3.452m2.783,11.607a14.094,14.094,0,0,1-.874,5.3c-.555,1.357-1.22,2.046-1.976,2.046s-1.421-.684-1.976-2.032a13.915,13.915,0,0,1-.873-5.253,13.956,13.956,0,0,1,.857-5.2c.546-1.348,1.2-2.031,1.96-2.031s1.427.679,1.994,2.02a13.306,13.306,0,0,1,.89,5.151" transform="translate(-47.394 -1.774)" fill="#0d62b6"/>
      <path id="Path_17" data-name="Path 17" d="M155.151,25.633a3.337,3.337,0,0,1-2.092-.82l-6.9-7.557,5.642-6.7a3.132,3.132,0,0,1,2.142-1,.2.2,0,0,0,.168-.315,19.222,19.222,0,0,1-.1-2.945.2.2,0,0,0-.2-.2H146.9a.2.2,0,0,0-.2.2V9.407a.2.2,0,0,0,.2.2,1.522,1.522,0,0,1,.786.2.5.5,0,0,1,.287.454.828.828,0,0,1-.018.161L143.61,15.22V10.689a.844.844,0,0,1,.432-.7,1.9,1.9,0,0,1,1.111-.322.2.2,0,0,0,.2-.2c0-1.05.045-2.111.133-3.151a.2.2,0,0,0-.2-.22c-2.231,0-4.433.019-6.547.057a.2.2,0,0,0-.2.2V9.46a.2.2,0,0,0,.2.2,1.886,1.886,0,0,1,1.171.346.951.951,0,0,1,.438.794V24.731c0,.191-.137.362-.418.525a2.375,2.375,0,0,1-1.191.273.2.2,0,0,0-.2.2v3.453a.2.2,0,0,0,.2.2h6.24a.2.2,0,0,0,.2-.2V25.645a.2.2,0,0,0-.2-.2c-1.374,0-1.374-.492-1.374-.654V19.726l4.551,5.049a.231.231,0,0,1,.01.066c0,.177-.248.333-.455.432a2.449,2.449,0,0,1-1.054.252.2.2,0,0,0-.2.2v3.458a.2.2,0,0,0,.2.2h8.488a.2.2,0,0,0,.2-.2V25.836a.2.2,0,0,0-.2-.2" transform="translate(-40.642 -1.786)" fill="#0d62b6"/>
      <path id="Path_18" data-name="Path 18" d="M130.528,25.706a.209.209,0,0,0-.146-.058c-.844.009-2.063-.844-3.6-2.562a20.543,20.543,0,0,1-2.812-3.879,3.983,3.983,0,0,0,2.734-2.2,7.879,7.879,0,0,0,1.237-4.087A6.714,6.714,0,0,0,125.372,7.6a8.285,8.285,0,0,0-5.019-1.469h-4.966a.2.2,0,0,0-.2.2,11.074,11.074,0,0,1-.191,3.014.2.2,0,0,0,.126.363,2.356,2.356,0,0,1,1.268.326.835.835,0,0,1,.475.7c0,9.342-.423,13.934-.541,14.356,0,.008-.009.018-.013.026-.052.125-.211.5-1.524.5a.2.2,0,0,0-.2.2V29.2a.2.2,0,0,0,.2.2H121.8a.2.2,0,0,0,.2-.254c-.022-.09-.06-.642-.06-3.322a.2.2,0,0,0-.2-.2,2.775,2.775,0,0,1-1.1-.2c-.171-.074-.376-.194-.376-.343V19.585c1.9,2.9,3.121,4.73,3.62,5.443-.01.216-.1.62-1.071.62a.2.2,0,0,0-.2.2c0,1.833.022,2.934.068,3.366a.2.2,0,0,0,.2.182h7.616a.2.2,0,0,0,.157-.074.205.205,0,0,0,.042-.168,29.292,29.292,0,0,1-.1-3.3.2.2,0,0,0-.061-.145M120.253,10.988c.136-.986.779-1.167,2-1.167a1.952,1.952,0,0,1,1.523.649,2.527,2.527,0,0,1,.606,1.8,5.632,5.632,0,0,1-.666,2.829,1.8,1.8,0,0,1-1.529,1.112,2.331,2.331,0,0,1-1.627-.386c-.322-.325-.314-.934-.3-1.776,0-.157,0-.321,0-.493Z" transform="translate(-33.613 -1.797)" fill="#0d62b6"/>
      <path id="Path_19" data-name="Path 19" d="M107.909,21.643a.2.2,0,0,0-.2-.2c-.676,0-1.326.03-1.931.087a.2.2,0,0,0-.183.2,4.646,4.646,0,0,1-.754,2.672,2.086,2.086,0,0,1-1.762,1.069c-1.978,0-1.978-.965-1.978-1.283V18.5c0-.15.184-.226.547-.226h.553c.228,0,.423.156.592.478a2.8,2.8,0,0,1,.285,1.319.2.2,0,0,0,.2.2h1.711a.2.2,0,0,0,.2-.2V14.583a.2.2,0,0,0-.2-.2h-1.711a.2.2,0,0,0-.2.2c0,1.227-.491,1.227-.676,1.227a5.725,5.725,0,0,1-.806-.057c-.436,0-.5-.191-.5-.391.045-1.372.067-2.807.067-4.265a2.015,2.015,0,0,1,.363-1.208,1,1,0,0,1,.815-.476h1.386c.391,0,.736.279,1.053.852a4.59,4.59,0,0,1,.495,2.2.2.2,0,0,0,.2.2c.384,0,.763-.016,1.134-.03.349-.013.69-.027,1.025-.027a.2.2,0,0,0,.2-.2c0-4.21.14-6.076.179-6.224a.2.2,0,0,0-.18-.3c-1.7,0-5.481-.143-11.231-.428a6.865,6.865,0,0,1-1.271-.126.2.2,0,0,0-.279.151.564.564,0,0,0,.013.182,26.606,26.606,0,0,1,.219,3.54.2.2,0,0,0,.2.2,2,2,0,0,1,1.591.559,4.383,4.383,0,0,1,.589,2.954c0,7.221-.232,10.7-.3,10.96-.224,1.018-.5,1.5-2.083,1.5a.2.2,0,0,0-.2.211,33.092,33.092,0,0,1-.1,3.713.2.2,0,0,0,.2.253h.006l12.758-.39a.269.269,0,0,0,.231-.109.244.244,0,0,0,.006-.238,48.262,48.262,0,0,1-.28-7.181" transform="translate(-27.865 -1.561)" fill="#0d62b6"/>
      <path id="Path_20" data-name="Path 20" d="M86.462,17.574a8.952,8.952,0,0,0-1.723-.792q-.87-.286-1.776-.6a4.91,4.91,0,0,1-2.483-1.5,4.689,4.689,0,0,1-.5-2.2,2.2,2.2,0,0,1,1.97-2.567,4.35,4.35,0,0,1,.679-.054c1.606,0,2.417,1.047,2.481,3.2a.2.2,0,0,0,.2.2h2.416a.2.2,0,0,0,.155-.072.2.2,0,0,0,.045-.165,40.644,40.644,0,0,1-.4-6.481.2.2,0,0,0-.2-.2H85.313a.2.2,0,0,0-.2.19,1.57,1.57,0,0,1-.218.825,1.576,1.576,0,0,0-.871-.74,7.271,7.271,0,0,0-3.867-.36,3.963,3.963,0,0,0-2.9,2.245,10.329,10.329,0,0,0-1.167,5.1c0,4.681,2.774,5.508,5,6.173,1.723.514,3.084.92,3.084,2.773a3.376,3.376,0,0,1-.712,2.146,2.022,2.022,0,0,1-1.636.88,3.626,3.626,0,0,1-2.418-.865,2.94,2.94,0,0,1-1.1-2.09.2.2,0,0,0-.2-.188c-.529-.006-1.057-.042-1.567-.076-.449-.031-.888-.061-1.311-.071a.174.174,0,0,0-.179.1.2.2,0,0,0,0,.2,9.38,9.38,0,0,1,.247,1.8l.023.23c.133,1.571.2,3.219.2,4.9a.2.2,0,0,0,.2.2h2.215a.2.2,0,0,0,.2-.2,3.631,3.631,0,0,1,.284-1.367.978.978,0,0,1,.319-.438,4.283,4.283,0,0,0,2.947,1.738,5.806,5.806,0,0,0,6.15-2.551,8.531,8.531,0,0,0,.936-4.392,5.914,5.914,0,0,0-1.023-3.964,6.556,6.556,0,0,0-1.285-.982" transform="translate(-22.007 -1.809)" fill="#0d62b6"/>
      <path id="Path_21" data-name="Path 21" d="M65.7,17.575a8.958,8.958,0,0,0-1.722-.792q-.87-.286-1.777-.6a4.913,4.913,0,0,1-2.484-1.5,4.687,4.687,0,0,1-.5-2.2,2.2,2.2,0,0,1,1.971-2.567,4.348,4.348,0,0,1,.678-.054c1.606,0,2.417,1.047,2.482,3.2a.2.2,0,0,0,.2.2h2.416a.2.2,0,0,0,.2-.237,40.719,40.719,0,0,1-.4-6.481.2.2,0,0,0-.2-.2H64.548a.2.2,0,0,0-.2.19,1.561,1.561,0,0,1-.218.825,1.573,1.573,0,0,0-.871-.74,7.275,7.275,0,0,0-3.867-.36,3.961,3.961,0,0,0-2.9,2.245,10.321,10.321,0,0,0-1.167,5.1c0,4.681,2.774,5.508,5,6.173,1.722.514,3.084.92,3.084,2.773a3.376,3.376,0,0,1-.712,2.146,2.023,2.023,0,0,1-1.636.88,3.627,3.627,0,0,1-2.419-.866,2.938,2.938,0,0,1-1.1-2.09.2.2,0,0,0-.2-.188c-.6-.006-1.156-.044-1.7-.081-.389-.026-.774-.052-1.166-.067a.17.17,0,0,0-.182.1.2.2,0,0,0,0,.207,7.471,7.471,0,0,1,.207,1.505l.052.53c.133,1.571.2,3.219.2,4.9a.2.2,0,0,0,.2.2h2.215a.2.2,0,0,0,.2-.2,3.618,3.618,0,0,1,.284-1.367.973.973,0,0,1,.319-.438,4.28,4.28,0,0,0,2.947,1.738,5.8,5.8,0,0,0,6.15-2.551,8.537,8.537,0,0,0,.936-4.392,5.916,5.916,0,0,0-1.023-3.964,6.567,6.567,0,0,0-1.286-.982" transform="translate(-15.918 -1.809)" fill="#0d62b6"/>
      <path id="Path_22" data-name="Path 22" d="M46.5,25.485a6.391,6.391,0,0,1-1.126-.052.937.937,0,0,1-.591-.442L42.371,6.3a.2.2,0,0,0-.2-.177.278.278,0,0,0-.054.006c-.1.008-.558.016-2.463-.006H35.527a.2.2,0,0,0-.2.172L32.439,25.165c0,.066-.119.187-.454.31a4,4,0,0,1-1.356.2.2.2,0,0,0-.2.2,25.867,25.867,0,0,1-.2,3.655.2.2,0,0,0,.2.235l.028,0a59.224,59.224,0,0,1,7.285-.342.2.2,0,0,0,.2-.2V25.851a.2.2,0,0,0-.2-.2,1.314,1.314,0,0,1-1.105-.767c0-4.407.514-4.458.546-4.458a15.17,15.17,0,0,1,3.276-.023.2.2,0,0,0,.135.052c.022,0,.533.05.536,4.362a1.109,1.109,0,0,1-.673.5,2.552,2.552,0,0,1-.868.188.2.2,0,0,0-.2.222c.111,1.16.167,2.311.167,3.42a.2.2,0,0,0,.2.2c1.528,0,3.07.056,4.584.165a16.62,16.62,0,0,1,2.184.254.2.2,0,0,0,.175-.044.2.2,0,0,0,.071-.165c0-.013-.067-1.316-.067-3.867a.2.2,0,0,0-.2-.2M37.7,13.214c.55-2.013,1.043-2.328,1.28-2.337.106,0,.5.146,1.047,2.027a12.677,12.677,0,0,1,.6,3.543,2.865,2.865,0,0,1-.049.6h-3.39a2.17,2.17,0,0,1-.014-.283,14.67,14.67,0,0,1,.53-3.548" transform="translate(-8.866 -1.797)" fill="#0d62b6"/>
      <path id="Path_23" data-name="Path 23" d="M22.4,9.837a2.38,2.38,0,0,1,1.191-.289.2.2,0,0,0,.2-.2V6.25a.2.2,0,0,0-.2-.2h0L16.842,6.1a.2.2,0,0,0-.15.068.206.206,0,0,0-.05.156c.044.411.066,1.462.066,3.123a.2.2,0,0,0,.2.2,1.53,1.53,0,0,1,.981.355.95.95,0,0,1,.43.694l-1.61,9.29a6.868,6.868,0,0,1-.163.735c-.029.1-.082.23-.141.238-.008,0-.214-.01-.44-.868l-2.242-9.365a.924.924,0,0,1,.5-.9,2.4,2.4,0,0,1,1.208-.283.2.2,0,0,0,.2-.2V6.335a.2.2,0,0,0-.2-.2L8.692,6.1a.151.151,0,0,0-.151.066.2.2,0,0,0-.052.157c.044.43.066,1.476.066,3.11a.2.2,0,0,0,.2.2A1.527,1.527,0,0,1,9.739,10a.99.99,0,0,1,.429.651l-1.605,9.3c-.068.249-.13.49-.187.731-.051.216-.139.226-.155.229-.077,0-.25-.177-.406-.844L5.572,10.679a.927.927,0,0,1,.394-.755A1.522,1.522,0,0,1,6.946,9.6a.2.2,0,0,0,.2-.2V6.25a.2.2,0,0,0-.2-.2H.2a.2.2,0,0,0-.2.2V9.46a.2.2,0,0,0,.2.2,2.435,2.435,0,0,1,1.271.314.812.812,0,0,1,.478.7l4.462,18.54a.2.2,0,0,0,.2.155H9.765a.2.2,0,0,0,.2-.162l2.119-10.386,2.5,10.393a.2.2,0,0,0,.2.155h3.148a.2.2,0,0,0,.2-.162l3.823-18.78c0-.228.148-.423.452-.595" transform="translate(0 -1.774)" fill="#0d62b6"/>
      <path id="Path_24" data-name="Path 24" d="M173.852,4.064a2.335,2.335,0,0,0,1.612-.595,1.89,1.89,0,0,0,0-2.89A2.37,2.37,0,0,0,173.852,0a2.322,2.322,0,0,0-1.576.579,1.889,1.889,0,0,0,0,2.89,2.288,2.288,0,0,0,1.578.595" transform="translate(-50.341 0)" fill="#0d62b6"/>
      <path id="Path_25" data-name="Path 25" d="M165.1,4.185a2.323,2.323,0,0,0,1.576-.579,1.862,1.862,0,0,0,.673-1.453A1.867,1.867,0,0,0,166.677.7,2.324,2.324,0,0,0,165.1.121a2.371,2.371,0,0,0-1.61.579,1.867,1.867,0,0,0-.673,1.454,1.861,1.861,0,0,0,.673,1.453,2.37,2.37,0,0,0,1.61.579" transform="translate(-47.764 -0.036)" fill="#0d62b6"/>
    </g>
  </g>
</svg>
